
<svg xmlns="http://www.w3.org/2000/svg" viewBox="0 0 24 24" fill="none" stroke="currentColor" stroke-width="2" stroke-linecap="round" stroke-linejoin="round">
  <polyline points="20,12 20,22 4,22 4,12"></polyline>
  <rect x="2" y="7" width="20" height="5"></rect>
  <line x1="12" y1="22" x2="12" y2="7"></line>
  <path d="m5,7 10,0"></path>
  <path d="m19,7-10,0"></path>
  <path d="M7,7V5A2,2 0 0,1 9,3H11A2,2 0 0,1 13,5V7"></path>
  <path d="M17,7V5A2,2 0 0,0 15,3H13A2,2 0 0,0 11,5V7"></path>
</svg>
